<?xml version="1.0" standalone="no"?><!DOCTYPE svg PUBLIC "-//W3C//DTD SVG 1.1//EN" "http://www.w3.org/Graphics/SVG/1.1/DTD/svg11.dtd"><svg class="icon" width="200px" height="200.00px" viewBox="0 0 1024 1024" version="1.1" xmlns="http://www.w3.org/2000/svg"><path d="M234.37 711.7l77.93 77.93 81.83-74.87-84.89-84.89z" fill="#E1F5FF" /><path d="M330.52 606.62l-21.28 23.25 84.89 84.89 23.25-21.28z" fill="#FFFFFF" /><path d="M328.65 678.67L110.69 592.7c-5.83-2.3-12.48-0.92-16.91 3.51l-18.17 18.17c-6.95 6.95-5.91 18.49 2.17 24.08l177.41 122.87c2.92 2.02 5.46 4.56 7.48 7.48l122.87 177.41c5.59 8.07 17.13 9.11 24.08 2.17l18.17-18.17a15.752 15.752 0 0 0 3.51-16.91l-85.97-217.96a29.614 29.614 0 0 0-16.68-16.68z" fill="#F4CF01" /><path d="M885.88 138.12c25.96 25.96 38.29 59.84 36.51 91.42 34.54-37.38 54.05-112.76 19.44-147.37s-110-15.1-147.37 19.44c31.58-1.78 65.46 10.55 91.42 36.51z" fill="#E1F5FF" /><path d="M775.9 120.67c31.82-9.58 70.6 0.33 98.85 28.58s38.16 67.03 28.58 98.85l13.52-12.9c1.9-1.75 3.73-3.69 5.55-5.66 1.78-31.58-10.54-65.46-36.51-91.42-25.96-25.96-59.85-38.29-91.43-36.51-1.97 1.82-3.92 3.65-5.66 5.55l-12.9 13.51z" fill="#313FA0" /><path d="M874.75 149.26c-28.25-28.25-67.03-38.16-98.85-28.58l-16.51 17.3-35.32 38.59-17.63 19.27-375.92 410.78 86.86 86.86 410.79-375.91 19.27-17.64 38.59-35.32 17.29-16.51c9.59-31.82-0.32-70.59-28.57-98.84z" fill="#E1F5FF" /><path d="M693.49 306.68l-554-124.37c-5.26-1.18-10.77 0.41-14.58 4.23l-56.29 56.29c-8.15 8.15-5.07 21.99 5.75 25.93L559.86 445.3a31.485 31.485 0 0 1 18.83 18.83l176.54 485.49c3.94 10.83 17.79 13.9 25.93 5.75l56.29-56.29a15.74 15.74 0 0 0 4.23-14.58l-124.37-554a31.426 31.426 0 0 0-23.82-23.82z" fill="#8C9EFF" /></svg>