<?xml version="1.0" standalone="no"?><!DOCTYPE svg PUBLIC "-//W3C//DTD SVG 1.1//EN" "http://www.w3.org/Graphics/SVG/1.1/DTD/svg11.dtd"><svg class="icon" width="200px" height="200.00px" viewBox="0 0 1024 1024" version="1.1" xmlns="http://www.w3.org/2000/svg"><path d="M903.56 847.62H120.44c-30.89 0-55.94-25.04-55.94-55.94V232.31c0-30.89 25.04-55.94 55.94-55.94h783.12c30.89 0 55.94 25.04 55.94 55.94v559.38c0 30.89-25.04 55.93-55.94 55.93z" fill="#8C9EFF" /><path d="M847.63 421.1H651.84c-11.59 0-20.98-9.39-20.98-20.98s9.39-20.98 20.98-20.98h195.78c11.59 0 20.98 9.39 20.98 20.98s-9.39 20.98-20.97 20.98zM847.63 532.97H651.84c-11.59 0-20.98-9.39-20.98-20.98s9.39-20.98 20.98-20.98h195.78c11.59 0 20.98 9.39 20.98 20.98s-9.39 20.98-20.97 20.98zM763.72 644.85H651.84c-11.59 0-20.98-9.39-20.98-20.98s9.39-20.98 20.98-20.98h111.88c11.59 0 20.98 9.39 20.98 20.98s-9.39 20.98-20.98 20.98z" fill="#E1F5FF" /><path d="M344.19 410.61m-78.66 0a78.66 78.66 0 1 0 157.32 0 78.66 78.66 0 1 0-157.32 0Z" fill="#FFD600" /><path d="M487.09 692.05c16.25 0 28.15-12.94 24.12-26.22-21.14-69.7-87.9-120.62-167.02-120.62-79.13 0-145.88 50.92-167.02 120.62-4.03 13.28 7.88 26.22 24.12 26.22h285.8z" fill="#FFD600" /></svg>