<?xml version="1.0" standalone="no"?><!DOCTYPE svg PUBLIC "-//W3C//DTD SVG 1.1//EN" "http://www.w3.org/Graphics/SVG/1.1/DTD/svg11.dtd"><svg class="icon" width="200px" height="200.00px" viewBox="0 0 1024 1024" version="1.1" xmlns="http://www.w3.org/2000/svg"><path d="M199.77 730.34L83.84 916.51C72.04 935.46 85.67 960 107.99 960H916c22.33 0 35.95-24.54 24.15-43.49L824.23 730.34a28.453 28.453 0 0 0-24.15-13.41H223.92a28.44 28.44 0 0 0-24.15 13.41z" fill="#313FA0" /><path d="M824.98 376.98c0 172.85-183.71 483.69-312.98 483.69S199.02 549.83 199.02 376.98 339.15 64 512 64s312.98 140.12 312.98 312.98z" fill="#8C9EFF" /><path d="M512 383.82m-111.9 0a111.9 111.9 0 1 0 223.8 0 111.9 111.9 0 1 0-223.8 0Z" fill="#FFD600" /><path d="M512 523.73c-77.14 0-139.9-62.77-139.9-139.9s62.76-139.9 139.9-139.9 139.9 62.77 139.9 139.9-62.76 139.9-139.9 139.9z m0-223.81c-46.26 0-83.9 37.64-83.9 83.9s37.64 83.9 83.9 83.9 83.9-37.64 83.9-83.9-37.64-83.9-83.9-83.9z" fill="#FFFFFF" /></svg>