<?xml version="1.0" standalone="no"?><!DOCTYPE svg PUBLIC "-//W3C//DTD SVG 1.1//EN" "http://www.w3.org/Graphics/SVG/1.1/DTD/svg11.dtd"><svg class="icon" width="200px" height="200.00px" viewBox="0 0 1024 1024" version="1.1" xmlns="http://www.w3.org/2000/svg"><path d="M680 960H120c-30.93 0-56-25.07-56-56V120c0-30.93 25.07-56 56-56h560c30.93 0 56 25.07 56 56v784c0 30.93-25.07 56-56 56z" fill="#8C9EFF" /><path d="M603 208.67H197c-11.6 0-21 9.4-21 21s9.4 21 21 21h406c11.6 0 21-9.4 21-21 0-11.59-9.4-21-21-21zM407 396.89H197c-11.6 0-21 9.4-21 21s9.4 21 21 21h210c11.6 0 21-9.4 21-21s-9.4-21-21-21zM603 627.11H197c-11.6 0-21-9.4-21-21s9.4-21 21-21h406c11.6 0 21 9.4 21 21s-9.4 21-21 21z" fill="#E1F5FF" /><path d="M595.42 487.98l-59.4-59.4L892.4 72.2c10.93-10.93 28.66-10.93 39.6 0L951.8 92c10.93 10.93 10.93 28.66 0 39.6L595.42 487.98z" fill="#FFD600" /><path d="M932 151.4L872.6 92l19.8-19.8c10.93-10.93 28.66-10.93 39.6 0L951.8 92c10.93 10.93 10.93 28.66 0 39.6L932 151.4z" fill="#313FA0" /><path d="M494.25 520.48l41.77-91.9 59.4 59.4-91.9 41.77c-5.89 2.68-11.95-3.38-9.27-9.27z" fill="#FFFFFF" /></svg>