<?xml version="1.0" standalone="no"?><!DOCTYPE svg PUBLIC "-//W3C//DTD SVG 1.1//EN" "http://www.w3.org/Graphics/SVG/1.1/DTD/svg11.dtd"><svg class="icon" width="200px" height="200.00px" viewBox="0 0 1024 1024" version="1.1" xmlns="http://www.w3.org/2000/svg"><path d="M512 512m-448 0a448 448 0 1 0 896 0 448 448 0 1 0-896 0Z" fill="#8C9EFF" /><path d="M411.57 465.07V442.4c51.43-5.83 94.66-16.96 129.66-33.41l8.75 6.36c-2.12 56.48-3.18 99.7-3.18 129.66v72.38c1.32 68.95 2.12 106.2 2.39 111.77 0.26 13.26 1.72 22.94 4.37 29.03 1.33 2.39 3.05 4.45 5.18 6.17 2.11 1.72 5.29 3.12 9.54 4.17 1.59 0.27 16.31 0.67 44.15 1.2V792c-40.31-1.85-72.52-2.78-96.65-2.78-21.21 0-55.95 0.93-104.2 2.78v-22.27l37.78-0.4c5.57-0.26 9.88-1.26 12.93-2.98 3.05-1.72 5.37-3.91 6.96-6.56 2.91-5.3 4.78-14.72 5.57-28.24 0-3.44 0.8-41.5 2.39-114.15v-70c0-39.51-1.33-62.97-3.98-70.4-1.59-3.98-4.45-6.96-8.55-8.95-4.12-1.99-21.83-2.98-53.11-2.98zM508.62 232c12.46 0 23 4.37 31.62 13.13 8.61 8.75 12.93 19.36 12.93 31.81 0 12.2-4.38 22.67-13.13 31.42s-19.23 13.12-31.42 13.12c-12.46 0-23.07-4.37-31.81-13.12-8.75-8.75-13.13-19.23-13.13-31.42 0-12.46 4.38-23.07 13.13-31.81 8.74-8.76 19.34-13.13 31.81-13.13z" fill="#FFFFFF" /></svg>